<svg width="24" height="24" viewBox="0 0 24 24" fill="none" xmlns="http://www.w3.org/2000/svg">
<g clip-path="url(#clip0_1_266)">
<path fill-rule="evenodd" clip-rule="evenodd" d="M13.125 12C13.125 12.6213 12.6213 13.125 12 13.125C11.3787 13.125 10.875 12.6213 10.875 12C10.875 11.3787 11.3787 10.875 12 10.875C12.6213 10.875 13.125 11.3787 13.125 12ZM7.875 10.875C7.25368 10.875 6.75 11.3787 6.75 12C6.75 12.6213 7.25368 13.125 7.875 13.125C8.49632 13.125 9 12.6213 9 12C9 11.3787 8.49632 10.875 7.875 10.875ZM16.125 10.875C15.5037 10.875 15 11.3787 15 12C15 12.6213 15.5037 13.125 16.125 13.125C16.7463 13.125 17.25 12.6213 17.25 12C17.25 11.3787 16.7463 10.875 16.125 10.875ZM21.75 12C21.7507 15.424 19.9553 18.5975 17.02 20.3605C14.0847 22.1234 10.4398 22.2174 7.4175 20.6081L4.22531 21.6722C3.68626 21.852 3.09191 21.7117 2.69011 21.3099C2.28831 20.9081 2.14805 20.3137 2.32781 19.7747L3.39188 16.5825C1.48674 13.0006 1.99874 8.61332 4.67747 5.56638C7.35619 2.51944 11.6418 1.44968 15.4382 2.88032C19.2346 4.31096 21.7483 7.94298 21.75 12ZM20.25 12C20.249 8.53154 18.0787 5.43408 14.819 4.24891C11.5593 3.06374 7.90643 4.04399 5.67801 6.70188C3.44959 9.35977 3.12157 13.1276 4.85719 16.1306C4.9647 16.3167 4.98723 16.5399 4.91906 16.7437L3.75 20.25L7.25625 19.0809C7.33262 19.0549 7.41275 19.0416 7.49344 19.0416C7.62516 19.0418 7.7545 19.0767 7.86844 19.1428C10.4211 20.6197 13.568 20.6217 16.1225 19.148C18.6771 17.6743 20.2507 14.9491 20.25 12Z" fill="#121717"/>
</g>
<defs>
<clipPath id="clip0_1_266">
<rect width="24" height="24" fill="white"/>
</clipPath>
</defs>
</svg>
